<?xml version="1.0" standalone="no"?>
<!DOCTYPE svg PUBLIC "-//W3C//DTD SVG 20010904//EN"
 "http://www.w3.org/TR/2001/REC-SVG-20010904/DTD/svg10.dtd">
<svg version="1.0" xmlns="http://www.w3.org/2000/svg"
 width="507.000000pt" height="508.000000pt" viewBox="0 0 507.000000 508.000000"
 preserveAspectRatio="xMidYMid meet">

<g transform="translate(0.000000,508.000000) scale(0.100000,-0.100000)"
fill="#222AEB" stroke="none">
<path d="M0 2540 l0 -2540 2530 0 2530 0 0 2540 0 2540 -2530 0 -2530 0 0
-2540z m563 2434 c140 -69 209 -222 168 -370 -60 -221 -356 -299 -520 -135
-176 176 -92 469 153 532 52 14 144 1 199 -27z m10 -1171 c8 -27 45 -166 82
-311 38 -144 72 -259 76 -255 4 5 43 143 86 308 l79 300 127 3 127 3 0 -386 0
-385 -70 0 -70 0 0 305 c0 168 -3 305 -8 305 -4 0 -43 -137 -86 -305 l-79
-305 -108 0 -108 0 -10 38 c-5 20 -40 154 -76 297 -37 143 -71 264 -76 270 -5
5 -9 -119 -9 -298 l0 -307 -70 0 -70 0 0 385 0 385 125 0 124 0 14 -47z m1447
-158 c0 -113 4 -205 8 -205 5 0 59 43 121 95 l113 95 96 0 c112 0 115 12 -38
-115 -58 -48 -106 -90 -108 -94 -1 -4 43 -72 98 -150 55 -79 108 -154 116
-167 l16 -24 -80 0 -81 0 -82 120 c-45 67 -86 123 -91 126 -4 3 -26 -9 -48
-27 l-40 -32 0 -94 0 -93 -70 0 -70 0 0 385 0 385 70 0 70 0 0 -205z m-357
-38 c94 -55 107 -97 107 -338 l0 -189 -70 0 -70 0 0 40 0 41 -37 -39 c-82 -85
-257 -74 -325 20 -17 25 -23 46 -23 88 0 107 63 153 235 170 140 14 150 17
150 39 0 32 -48 80 -86 87 -52 10 -119 -20 -153 -66 l-27 -38 -52 32 c-28 17
-52 36 -52 42 0 23 111 114 158 129 74 23 188 15 245 -18z m1172 9 c96 -45
142 -116 152 -236 l6 -70 -202 0 -202 0 7 -22 c10 -33 42 -76 65 -89 23 -12
86 -14 120 -4 13 4 38 21 56 37 l31 30 51 -28 c28 -16 51 -34 51 -40 0 -21
-73 -87 -118 -107 -31 -13 -68 -19 -116 -20 -164 -1 -273 102 -284 269 -6 91
15 156 69 218 73 83 211 111 314 62z m915 -7 c60 -34 98 -84 110 -148 5 -30
10 -127 10 -217 l0 -164 -70 0 -70 0 0 33 c0 47 -8 50 -37 16 -47 -56 -115
-76 -204 -59 -96 18 -149 77 -149 166 0 99 67 146 236 164 142 16 144 16 144
46 0 33 -39 71 -83 79 -52 10 -102 -11 -142 -58 l-36 -41 -45 24 c-65 36 -68
41 -34 82 33 40 83 74 139 95 57 21 178 12 231 -18z m-3019 -886 c57 -26 106
-75 133 -133 19 -40 21 -64 21 -225 0 -202 -9 -237 -75 -304 -65 -65 -103 -74
-312 -79 l-188 -4 0 387 0 387 188 -4 c162 -4 193 -7 233 -25z m1022 -216 c84
-50 126 -126 127 -234 l0 -63 -195 0 c-135 0 -195 -3 -195 -11 0 -27 35 -81
62 -95 36 -19 107 -20 140 -4 12 7 33 24 45 38 l22 26 43 -23 c71 -39 72 -42
37 -84 -97 -118 -301 -123 -414 -10 -82 83 -105 245 -49 354 21 43 74 90 129
116 70 34 181 29 248 -10z m592 6 c50 -26 80 -57 100 -105 12 -29 15 -79 15
-233 l0 -195 -70 0 -70 0 0 43 0 42 -26 -33 c-38 -48 -79 -66 -154 -66 -216
-1 -289 229 -98 308 20 9 81 20 135 26 54 6 108 13 121 16 54 11 3 97 -65 110
-51 10 -122 -22 -152 -68 l-23 -36 -49 30 c-27 16 -51 34 -54 38 -9 14 65 89
109 112 65 33 86 38 166 34 51 -2 88 -9 115 -23z m612 -1 c12 -7 33 -27 47
-44 24 -30 28 -31 37 -15 66 113 250 103 308 -17 19 -39 21 -60 21 -249 l0
-207 -70 0 -70 0 0 194 0 195 -26 20 c-37 29 -94 28 -128 -4 l-26 -24 0 -191
0 -190 -75 0 -75 0 0 195 c0 187 -1 195 -22 215 -39 36 -125 21 -147 -27 -7
-15 -11 -93 -11 -203 l0 -180 -70 0 -70 0 0 275 0 276 68 -3 67 -3 3 -37 c2
-21 5 -38 8 -38 2 0 18 16 35 35 45 51 129 63 196 27z m-1837 -22 c0 -47 5
-49 33 -14 26 34 75 54 132 54 l45 0 0 -59 0 -58 -63 -6 c-135 -13 -141 -22
-145 -249 l-4 -178 -69 0 -69 0 0 268 c0 148 3 272 7 275 3 4 35 7 70 7 l63 0
0 -40z m2530 -347 c61 -57 32 -160 -50 -178 -35 -8 -89 16 -109 47 -7 12 -13
40 -13 62 1 55 44 96 102 96 29 0 47 -7 70 -27z m-2229 -1065 c0 -10 2 -10 6
0 7 17 20 15 20 -3 0 -9 -10 -15 -24 -15 -14 0 -23 6 -23 15 0 18 20 20 21 3z
m69 -37 c0 -49 1 -50 33 -54 28 -3 26 -4 -10 -5 l-43 -2 0 55 c0 30 5 55 10
55 6 0 10 -22 10 -49z m1100 -4 l0 -54 -31 1 c-39 1 -59 27 -43 54 7 10 22 16
38 15 20 -1 26 3 26 18 0 10 2 19 5 19 3 0 5 -24 5 -53z m127 -29 c-2 -18 -4
-6 -4 27 0 33 2 48 4 33 2 -15 2 -42 0 -60z m411 52 c15 -1 15 -2 0 -11 -10
-5 -18 -19 -18 -29 0 -10 8 -24 18 -29 15 -9 15 -10 -5 -11 -20 0 -23 5 -23
35 0 19 -5 35 -10 35 -6 0 -5 6 2 14 7 8 15 10 16 5 2 -5 11 -9 20 -9z m452
-3 c12 -4 11 -6 -2 -6 -21 -1 -26 -56 -5 -64 7 -3 5 -6 -5 -6 -14 -1 -18 7
-18 34 0 26 -4 35 -17 36 -17 1 -17 2 0 6 9 2 17 10 17 16 0 9 2 9 8 1 4 -6
14 -14 22 -17z m730 0 c12 -4 11 -6 -2 -6 -21 -1 -26 -56 -5 -64 7 -3 5 -6 -5
-6 -14 -1 -18 7 -18 34 0 26 -4 35 -17 36 -17 1 -17 2 0 6 9 2 17 10 17 16 0
9 2 9 8 1 4 -6 14 -14 22 -17z m158 3 c15 -1 15 -2 0 -11 -10 -5 -18 -19 -18
-29 0 -10 8 -24 18 -29 15 -9 15 -10 -5 -11 -20 0 -23 5 -23 35 0 19 -5 35
-10 35 -6 0 -5 6 2 14 7 8 15 10 16 5 2 -5 11 -9 20 -9z m-2838 -15 c26 -32
-13 -81 -47 -59 -35 22 -23 74 17 74 10 0 23 -7 30 -15z m58 1 c-9 -6 -18 -25
-21 -41 -3 -25 -4 -23 -6 10 -1 36 2 41 22 42 20 2 20 1 5 -11z m92 -1 c16
-19 4 -35 -26 -35 -16 0 -23 -4 -18 -11 3 -6 15 -9 25 -6 11 3 19 1 19 -4 0
-13 -44 -11 -58 3 -25 25 -7 68 29 68 9 0 22 -7 29 -15z m137 -30 l1 -40 -6
35 c-4 22 -13 35 -22 35 -10 0 -17 -12 -19 -35 l-4 -35 -6 35 c-4 22 -12 35
-21 35 -9 0 -17 -13 -21 -35 l-6 -35 -2 41 -1 41 53 -1 52 -1 2 -40z m90 -17
c-2 -13 -4 -3 -4 22 0 25 2 35 4 23 2 -13 2 -33 0 -45z m107 40 c15 -25 -4
-53 -35 -53 -15 0 -26 -7 -31 -20 -3 -12 -6 4 -7 36 l-1 56 31 -1 c19 -1 36
-8 43 -18z m81 12 c4 -7 -2 -9 -19 -4 -16 4 -26 2 -26 -5 0 -6 11 -13 25 -17
34 -8 35 -44 1 -44 -14 0 -27 4 -30 9 -3 4 6 6 19 3 33 -6 32 14 0 22 -24 6
-33 25 -18 39 10 11 41 8 48 -3z m55 -54 c13 -14 38 11 43 42 3 19 4 15 6 -14
1 -40 0 -41 -31 -40 -31 1 -33 3 -34 41 -1 29 0 32 3 10 2 -16 9 -34 13 -39z
m178 51 c14 -9 17 -67 3 -67 -6 0 -11 15 -13 33 -2 17 -7 32 -13 32 -5 0 -11
-15 -13 -32 -2 -18 -7 -33 -12 -33 -5 0 -10 15 -12 33 -2 17 -7 32 -13 32 -5
0 -11 -15 -13 -32 -5 -46 -22 -41 -22 6 l0 38 48 -1 c26 -1 53 -5 60 -9z m252
-2 c26 -32 -13 -81 -47 -59 -35 22 -23 74 17 74 10 0 23 -7 30 -15z m140 -5
c16 -31 -4 -62 -38 -58 -21 2 -28 9 -30 32 -5 45 47 65 68 26z m57 7 c-9 -7
-18 -25 -20 -42 -3 -25 -4 -23 -6 10 -1 35 2 41 20 42 19 2 19 0 6 -10z m139
1 c5 -8 2 -9 -10 -5 -33 13 -39 -6 -6 -19 17 -8 30 -19 28 -26 -6 -18 -60 -16
-66 2 -4 12 -2 13 9 3 16 -15 39 -17 39 -3 0 5 -11 12 -25 16 -24 6 -32 23
-18 37 10 11 41 8 49 -5z m41 -50 c-2 -13 -4 -3 -4 22 0 25 2 35 4 23 2 -13 2
-33 0 -45z m221 22 c3 -35 2 -36 -33 -38 -29 -2 -35 1 -35 17 0 12 9 21 25 25
14 4 25 11 25 16 0 14 -24 12 -38 -2 -7 -7 -12 -8 -12 -2 0 18 13 25 40 22 21
-3 25 -9 28 -38z m130 27 c14 -9 17 -67 3 -67 -6 0 -11 15 -13 33 -2 17 -7 32
-13 32 -5 0 -11 -15 -13 -32 -2 -18 -7 -33 -12 -33 -5 0 -10 15 -12 33 -2 17
-7 32 -13 32 -5 0 -11 -15 -13 -32 -5 -46 -22 -41 -22 6 l0 38 48 -1 c26 -1
53 -5 60 -9z m100 -14 c3 -20 -1 -23 -28 -23 -20 0 -29 -4 -24 -11 3 -6 17 -8
33 -4 19 5 23 4 15 -5 -7 -6 -22 -10 -35 -8 -28 4 -38 40 -18 64 18 22 53 13
57 -13z m260 7 c4 -12 3 -13 -10 -2 -20 16 -48 5 -48 -19 0 -25 26 -35 47 -18
14 12 16 12 11 -1 -3 -9 -17 -15 -34 -15 -23 0 -30 5 -32 23 -2 13 2 30 9 38
15 18 51 15 57 -6z m92 5 c7 -8 10 -25 6 -40 -11 -41 -76 -29 -76 15 0 36 47
53 70 25z m100 -11 c13 -32 13 -54 1 -54 -6 0 -11 15 -13 33 -4 43 -30 42 -45
-3 l-12 -35 0 40 c-1 38 1 40 29 42 25 2 33 -3 40 -23z m86 14 c5 -8 2 -9 -10
-5 -33 13 -39 -6 -6 -19 17 -8 30 -19 28 -26 -6 -17 -60 -17 -66 0 -3 11 -1
11 16 1 12 -7 25 -9 29 -5 4 5 3 11 -3 13 -26 9 -47 31 -40 41 9 15 43 15 52
0z m94 -3 c16 -19 4 -35 -26 -35 -16 0 -23 -4 -18 -11 3 -6 15 -9 25 -6 11 3
19 1 19 -4 0 -13 -44 -11 -58 3 -25 25 -7 68 29 68 9 0 22 -7 29 -15z m84 9
c9 -3 16 -10 16 -15 0 -6 -9 -5 -20 1 -25 13 -40 5 -40 -21 0 -25 26 -35 47
-18 14 12 16 12 11 -1 -8 -24 -55 -25 -68 -1 -20 39 11 71 54 55z m175 -13
c12 -22 5 -31 -26 -31 -12 0 -23 -5 -23 -11 0 -7 10 -9 25 -7 13 3 22 1 19 -3
-15 -24 -64 0 -64 31 0 38 52 54 69 21z m136 -46 c15 0 22 9 26 35 l6 35 2
-41 c1 -40 0 -41 -31 -40 -31 1 -33 3 -35 41 l-1 40 6 -35 c5 -26 12 -35 27
-35z m93 51 c-9 -6 -18 -25 -21 -41 -3 -25 -4 -23 -6 10 -1 36 2 41 22 42 20
2 20 1 5 -11z m-1002 -75 c-4 -6 -13 -11 -19 -11 -7 0 -6 4 3 10 11 7 11 10 2
10 -7 0 -10 5 -6 11 4 7 10 7 16 1 6 -6 7 -15 4 -21z m-2056 -234 c0 -51 -1
-53 -30 -55 -37 -3 -57 27 -39 59 8 15 18 20 35 16 18 -3 24 0 24 14 0 11 2
19 5 19 3 0 5 -24 5 -53z m50 43 c0 -5 -4 -10 -10 -10 -5 0 -10 5 -10 10 0 6
5 10 10 10 6 0 10 -4 10 -10z m140 0 c0 -5 -4 -10 -10 -10 -5 0 -10 5 -10 10
0 6 5 10 10 10 6 0 10 -4 10 -10z m220 0 c0 -5 -4 -10 -10 -10 -5 0 -10 5 -10
10 0 6 5 10 10 10 6 0 10 -4 10 -10z m380 -45 c0 -30 -4 -55 -10 -55 -5 0 -10
25 -10 55 0 30 5 55 10 55 6 0 10 -25 10 -55z m40 45 c0 -5 -4 -10 -10 -10 -5
0 -10 5 -10 10 0 6 5 10 10 10 6 0 10 -4 10 -10z m440 -43 c0 -51 -1 -53 -30
-55 -37 -3 -57 27 -39 59 8 15 18 20 35 16 18 -3 24 0 24 14 0 11 2 19 5 19 3
0 5 -24 5 -53z m160 -1 l0 -54 -37 1 c-35 2 -38 5 -41 34 -2 24 1 33 17 38 12
3 25 3 31 0 5 -3 10 3 10 14 0 12 5 21 10 21 6 0 10 -24 10 -54z m280 44 c0
-5 -2 -10 -4 -10 -3 0 -8 5 -11 10 -3 6 -1 10 4 10 6 0 11 -4 11 -10z m520
-43 l0 -54 -31 1 c-39 1 -59 27 -43 54 7 10 22 16 38 15 20 -1 26 3 26 18 0
10 2 19 5 19 3 0 5 -24 5 -53z m-1341 15 c-14 -5 -11 -60 4 -65 7 -3 5 -6 -5
-6 -13 -1 -18 7 -18 29 0 17 -7 33 -17 39 -17 10 -17 10 0 11 9 0 17 5 17 10
0 6 6 5 14 -2 8 -7 10 -14 5 -16z m1459 8 c15 -1 15 -2 0 -11 -10 -5 -18 -19
-18 -29 0 -10 8 -24 18 -29 15 -9 15 -10 -5 -11 -20 0 -23 5 -23 35 0 19 -5
35 -10 35 -6 0 -5 6 2 14 7 8 15 10 16 5 2 -5 11 -9 20 -9z m-2450 -41 c3 -35
2 -36 -29 -35 -43 1 -49 24 -9 37 22 8 28 15 21 22 -7 7 -15 6 -26 -3 -8 -7
-15 -8 -15 -3 0 16 13 24 35 21 15 -2 21 -12 23 -39z m139 -21 c-2 -13 -4 -3
-4 22 0 25 2 35 4 23 2 -13 2 -33 0 -45z m107 40 c15 -25 -4 -53 -35 -53 -15
0 -26 -7 -31 -20 -3 -12 -6 4 -7 36 l-1 56 31 -1 c19 -1 36 -8 43 -18z m33
-40 c-2 -13 -4 -3 -4 22 0 25 2 35 4 23 2 -13 2 -33 0 -45z m88 52 c4 -7 -2
-9 -19 -4 -16 4 -26 2 -26 -5 0 -6 11 -13 25 -17 34 -8 35 -44 1 -44 -14 0
-27 4 -30 9 -3 4 6 6 19 3 33 -6 32 14 0 22 -24 6 -33 25 -18 39 10 11 41 8
48 -3z m95 -5 c14 -17 0 -21 -17 -4 -15 15 -33 3 -33 -22 0 -22 32 -39 38 -21
2 7 8 12 13 12 4 0 6 -7 3 -15 -13 -32 -74 -11 -74 25 0 36 47 53 70 25z m37
-47 c-2 -13 -4 -3 -4 22 0 25 2 35 4 23 2 -13 2 -33 0 -45z m99 17 c1 -29 0
-32 -3 -10 -2 17 -9 34 -13 39 -13 14 -38 -11 -43 -42 -3 -19 -4 -15 -6 14 -1
40 0 41 32 40 30 -1 32 -3 33 -41z m102 -10 c-3 -44 -6 -50 -27 -53 -13 -2
-27 0 -32 5 -5 5 3 9 18 8 14 0 28 5 30 12 3 7 -3 9 -16 6 -40 -10 -67 37 -39
65 7 7 25 11 40 10 28 -2 29 -4 26 -53z m150 28 c3 -20 -1 -23 -28 -23 -20 0
-29 -4 -24 -11 3 -6 17 -8 33 -4 19 5 23 4 15 -5 -7 -6 -22 -10 -35 -8 -28 4
-38 40 -18 64 18 22 53 13 57 -13z m82 -13 c0 -22 -4 -40 -10 -40 -5 0 -10 18
-10 40 0 22 5 40 10 40 6 0 10 -18 10 -40z m245 30 c4 -7 -2 -9 -19 -4 -16 4
-26 2 -26 -5 0 -6 11 -13 25 -17 34 -8 35 -44 1 -44 -14 0 -27 4 -30 9 -3 4 6
6 19 3 33 -6 32 14 0 22 -24 6 -33 25 -18 39 10 11 41 8 48 -3z m95 -5 c16
-19 4 -35 -26 -35 -16 0 -23 -4 -18 -11 3 -6 15 -9 25 -6 11 3 19 1 19 -4 0
-13 -44 -11 -58 3 -25 25 -7 68 29 68 9 0 22 -7 29 -15z m350 0 c26 -32 -13
-81 -47 -59 -35 22 -23 74 17 74 10 0 23 -7 30 -15z m149 -4 c12 -22 5 -31
-26 -31 -12 0 -23 -5 -23 -11 0 -7 10 -9 26 -5 17 5 23 3 19 -4 -15 -25 -65
-3 -65 30 0 38 52 54 69 21z m38 -43 c-2 -13 -4 -3 -4 22 0 25 2 35 4 23 2
-13 2 -33 0 -45z m43 21 c0 -44 34 -36 38 9 5 45 22 40 22 -6 0 -37 -2 -39
-32 -40 -18 0 -36 5 -40 11 -11 18 -10 69 2 62 6 -3 10 -20 10 -36z m136 29
c5 -8 2 -9 -10 -5 -33 13 -39 -6 -6 -19 17 -8 30 -19 28 -26 -6 -17 -60 -17
-66 0 -3 11 -1 11 16 1 12 -7 25 -9 29 -5 4 5 3 11 -3 13 -26 9 -47 31 -40 41
9 15 43 15 52 0z m141 -33 l1 -40 -6 35 c-4 22 -13 35 -22 35 -10 0 -17 -12
-19 -35 l-4 -35 -6 35 c-4 22 -12 35 -21 35 -9 0 -17 -13 -21 -35 l-6 -35 -2
41 -1 41 53 -1 52 -1 2 -40z m93 30 c26 -32 -13 -81 -47 -59 -35 22 -23 74 17
74 10 0 23 -7 30 -15z m318 3 c22 -22 13 -38 -19 -38 -19 0 -28 -4 -23 -11 3
-6 17 -8 31 -4 16 4 22 2 18 -5 -11 -18 -54 -11 -65 10 -22 40 26 80 58 48z
m139 -33 c0 -22 -1 -29 -3 -15 -9 48 -13 53 -29 40 -7 -6 -16 -24 -18 -38 -4
-25 -4 -24 -6 5 -2 54 -33 50 -44 -7 -3 -17 -5 -12 -6 16 l-1 41 53 -1 52 -1
2 -40z m107 23 c15 -25 -4 -53 -35 -53 -15 0 -26 -7 -31 -20 -3 -12 -6 4 -7
36 l-1 56 31 -1 c19 -1 36 -8 43 -18z m96 2 c16 -31 -4 -62 -38 -58 -19 2 -28
10 -30 26 -7 47 47 72 68 32z m57 7 c-9 -7 -18 -25 -20 -42 -3 -25 -4 -23 -6
10 -1 35 2 41 20 42 19 2 19 0 6 -10z m-1897 -67 c0 -11 -4 -20 -8 -20 -4 0
-8 9 -9 20 -1 11 2 20 8 20 5 0 9 -9 9 -20z m-1090 -200 c0 -5 -2 -10 -4 -10
-3 0 -8 5 -11 10 -3 6 -1 10 4 10 6 0 11 -4 11 -10z m230 0 c0 -5 -2 -10 -4
-10 -3 0 -8 5 -11 10 -3 6 -1 10 4 10 6 0 11 -4 11 -10z m100 -43 l0 -54 -31
1 c-39 1 -59 27 -43 54 6 9 23 17 38 17 18 -1 26 4 26 17 0 10 2 18 5 18 3 0
5 -24 5 -53z m140 0 l0 -54 -31 1 c-39 1 -59 27 -43 54 6 9 23 17 38 17 18 -1
26 4 26 17 0 10 2 18 5 18 3 0 5 -24 5 -53z m577 -29 c-2 -18 -4 -6 -4 27 0
33 2 48 4 33 2 -15 2 -42 0 -60z m143 64 c0 -13 8 -18 28 -17 24 0 27 -3 27
-35 0 -34 -2 -35 -37 -37 l-38 -1 0 54 c0 30 5 54 10 54 6 0 10 -8 10 -18z
m680 -36 l0 -54 -37 1 c-35 2 -38 5 -41 34 -2 24 1 33 17 38 12 3 25 3 31 0 5
-3 10 3 10 14 0 12 5 21 10 21 6 0 10 -24 10 -54z m127 -28 c-2 -18 -4 -6 -4
27 0 33 2 48 4 33 2 -15 2 -42 0 -60z m923 65 c0 -15 -2 -16 -10 -3 -7 11 -10
11 -10 2 0 -7 -4 -10 -10 -7 -17 10 -11 25 10 25 12 0 20 -7 20 -17z m-2180
-16 c12 -4 11 -6 -2 -6 -21 -1 -26 -56 -5 -64 7 -3 5 -6 -5 -6 -14 -1 -18 7
-18 34 0 26 -4 35 -17 36 -17 1 -17 2 0 6 9 2 17 10 17 16 0 9 2 9 8 1 4 -6
14 -14 22 -17z m218 3 c15 -1 15 -2 0 -11 -10 -5 -18 -19 -18 -29 0 -10 8 -24
18 -29 15 -9 15 -10 -5 -11 -20 0 -23 5 -23 35 0 19 -5 35 -10 35 -6 0 -5 6 2
14 7 8 15 10 16 5 2 -5 11 -9 20 -9z m750 0 c15 -1 15 -2 0 -11 -10 -5 -18
-19 -18 -29 0 -10 8 -24 18 -29 15 -9 15 -10 -5 -11 -20 0 -23 5 -23 35 0 19
-5 35 -10 35 -6 0 -5 6 2 14 7 8 15 10 16 5 2 -5 11 -9 20 -9z m-1711 -62 c-2
-13 -4 -3 -4 22 0 25 2 35 4 23 2 -13 2 -33 0 -45z m91 50 c14 -12 16 -68 2
-68 -5 0 -10 13 -10 28 0 34 -7 43 -26 35 -8 -3 -14 -18 -14 -34 0 -16 -4 -29
-10 -29 -5 0 -10 17 -10 39 0 35 2 39 28 39 15 0 33 -5 40 -10z m102 -3 c15
-18 -1 -20 -18 -3 -16 16 -45 -12 -36 -35 7 -19 29 -23 39 -7 3 6 11 10 17 10
7 0 6 -6 -2 -15 -23 -28 -70 -11 -70 25 0 36 47 53 70 25z m37 -47 c-2 -13 -4
-3 -4 22 0 25 2 35 4 23 2 -13 2 -33 0 -45z m140 0 c-2 -13 -4 -3 -4 22 0 25
2 35 4 23 2 -13 2 -33 0 -45z m168 -3 c15 0 22 9 26 35 l6 35 2 -41 c1 -40 0
-41 -31 -40 -31 1 -33 3 -35 41 l-1 40 6 -35 c5 -26 12 -35 27 -35z m122 53
c7 -6 12 -25 12 -42 -2 -27 -2 -28 -6 -6 -11 57 -49 61 -56 7 -3 -28 -4 -27
-5 8 -2 35 1 41 20 42 12 1 28 -3 35 -9z m198 -53 c15 0 22 9 26 35 l6 35 2
-41 c1 -40 0 -41 -31 -40 -31 1 -33 3 -35 41 l-1 40 6 -35 c5 -26 12 -35 27
-35z m293 25 c3 -35 2 -36 -33 -38 -29 -2 -35 1 -35 17 0 12 9 21 25 25 14 4
25 11 25 16 0 14 -24 12 -38 -2 -7 -7 -12 -8 -12 -2 0 18 13 25 40 22 21 -3
25 -9 28 -38z m192 25 c15 -18 10 -45 -12 -59 -35 -22 -74 27 -48 59 16 19 44
19 60 0z m63 0 c-12 -8 -24 -28 -26 -43 -3 -20 -4 -16 -6 13 -1 37 1 41 26 43
28 2 28 2 6 -13z m85 3 c22 -22 13 -38 -19 -38 -19 0 -28 -4 -23 -11 3 -6 17
-8 31 -4 16 4 22 2 18 -5 -11 -18 -54 -11 -65 10 -22 40 26 80 58 48z m151 -7
c12 -22 5 -31 -26 -31 -12 0 -23 -5 -23 -11 0 -7 10 -9 25 -7 13 3 22 1 19 -3
-15 -24 -64 0 -64 31 0 38 52 54 69 21z m321 4 c15 -18 10 -45 -12 -59 -35
-22 -74 27 -48 59 16 19 44 19 60 0z m128 6 c8 -5 12 -21 10 -37 -2 -23 -9
-30 -30 -32 -19 -2 -30 3 -38 17 -21 40 20 77 58 52z m69 -3 c-10 -5 -17 -21
-17 -38 0 -17 -4 -30 -10 -30 -5 0 -10 17 -10 39 0 35 2 39 27 39 21 0 23 -2
10 -10z m91 -15 c3 -20 -1 -23 -28 -23 -20 0 -29 -4 -24 -11 3 -6 17 -8 33 -4
19 5 23 4 15 -5 -7 -6 -22 -10 -35 -8 -28 4 -38 40 -18 64 18 22 53 13 57 -13z
m189 -18 c2 -40 2 -40 -6 -7 -5 18 -11 35 -14 39 -12 11 -27 -10 -28 -40 -1
-34 -3 -30 -13 16 -9 37 -29 29 -37 -14 l-6 -34 -2 41 -1 41 53 -1 52 -1 2
-40z m91 4 c3 -35 2 -36 -30 -35 -46 1 -51 31 -7 40 26 5 30 9 21 18 -10 10
-17 9 -35 -1 -20 -13 -21 -13 -8 3 8 9 24 16 35 14 16 -2 22 -11 24 -39z m100
-14 c-3 -44 -6 -50 -27 -53 -13 -2 -27 0 -32 5 -5 5 3 9 18 8 14 0 28 5 30 12
3 7 -3 9 -16 6 -40 -10 -67 37 -39 65 7 7 25 11 40 10 28 -2 29 -4 26 -53z
m98 10 c1 -29 0 -32 -3 -10 -2 17 -9 34 -13 39 -13 14 -38 -11 -43 -42 -3 -19
-4 -15 -6 14 -1 40 0 41 32 40 30 -1 32 -3 33 -41z m92 4 c3 -35 2 -36 -29
-35 -43 1 -49 24 -9 37 22 8 28 15 21 22 -7 7 -15 6 -26 -3 -8 -7 -15 -8 -15
-3 0 16 13 24 35 21 15 -2 21 -12 23 -39z m52 -29 c0 -5 -4 -10 -10 -10 -5 0
-10 5 -10 10 0 6 5 10 10 10 6 0 10 -4 10 -10z"/>
<path d="M326 4757 c-23 -17 -33 -97 -16 -136 19 -47 75 -48 99 -3 13 25 -8
66 -37 70 -33 5 -24 36 11 40 19 2 27 9 27 23 0 15 -7 19 -33 19 -18 0 -41 -6
-51 -13z"/>
<path d="M447 4752 c-12 -13 -17 -37 -17 -80 0 -55 3 -63 26 -79 24 -15 29
-15 53 -2 20 11 26 22 26 48 0 33 -9 43 -47 55 -28 8 -10 36 23 36 22 0 29 5
29 20 0 17 -7 20 -38 20 -25 0 -45 -7 -55 -18z"/>
<path d="M1500 3308 c-36 -5 -75 -16 -87 -24 -23 -14 -30 -48 -15 -70 40 -60
187 -33 217 40 30 71 23 74 -115 54z"/>
<path d="M2653 3500 c-33 -20 -53 -48 -53 -74 0 -14 18 -16 120 -16 108 0 120
2 120 18 0 25 -27 60 -60 77 -40 21 -89 19 -127 -5z"/>
<path d="M3601 3309 c-81 -10 -86 -12 -107 -43 -15 -24 -15 -28 0 -51 49 -75
226 -18 226 74 0 35 -2 35 -119 20z"/>
<path d="M460 2365 l0 -258 89 5 c166 10 191 43 191 253 0 210 -25 243 -191
253 l-89 5 0 -258z"/>
<path d="M1548 2402 c-24 -14 -58 -66 -58 -86 0 -3 56 -6 125 -6 69 0 125 3
125 6 0 21 -35 73 -59 87 -37 22 -98 21 -133 -1z"/>
<path d="M2195 2209 c-80 -11 -103 -23 -111 -55 -15 -60 78 -94 161 -60 37 16
75 68 75 104 0 25 -17 26 -125 11z"/>
<path d="M2531 1036 c-15 -18 -3 -46 19 -46 10 0 21 7 24 16 6 16 -9 44 -24
44 -4 0 -13 -6 -19 -14z"/>
<path d="M1581 1036 c-15 -18 -3 -46 19 -46 10 0 21 7 24 16 6 16 -9 44 -24
44 -4 0 -13 -6 -19 -14z"/>
<path d="M1735 1040 c-3 -5 3 -10 15 -10 12 0 18 5 15 10 -3 6 -10 10 -15 10
-5 0 -12 -4 -15 -10z"/>
<path d="M2061 1036 c-15 -18 -3 -46 19 -46 10 0 21 7 24 16 6 16 -9 44 -24
44 -4 0 -13 -6 -19 -14z"/>
<path d="M2634 1035 c-9 -21 3 -45 21 -45 21 0 30 27 15 45 -16 19 -29 19 -36
0z"/>
<path d="M2764 1036 c-9 -24 4 -48 23 -44 12 2 18 12 18 28 0 29 -32 41 -41
16z"/>
<path d="M3220 1000 c0 -5 9 -10 20 -10 11 0 20 5 20 10 0 6 -9 10 -20 10 -11
0 -20 -4 -20 -10z"/>
<path d="M3460 1040 c-12 -8 -9 -10 13 -10 16 0 26 4 22 10 -8 12 -16 12 -35
0z"/>
<path d="M3814 1035 c-9 -21 3 -45 21 -45 21 0 30 27 15 45 -16 19 -29 19 -36
0z"/>
<path d="M4095 1040 c-3 -5 3 -10 15 -10 12 0 18 5 15 10 -3 6 -10 10 -15 10
-5 0 -12 -4 -15 -10z"/>
<path d="M4355 1040 c-3 -5 3 -10 15 -10 12 0 18 5 15 10 -3 6 -10 10 -15 10
-5 0 -12 -4 -15 -10z"/>
<path d="M1514 736 c-9 -24 4 -48 23 -44 12 2 18 12 18 28 0 29 -32 41 -41 16z"/>
<path d="M2784 736 c-9 -24 4 -48 23 -44 12 2 18 12 18 28 0 29 -32 41 -41 16z"/>
<path d="M2934 736 c-9 -24 4 -48 23 -44 12 2 18 12 18 28 0 29 -32 41 -41 16z"/>
<path d="M3741 736 c-15 -18 -3 -46 19 -46 10 0 21 7 24 16 6 16 -9 44 -24 44
-4 0 -13 -6 -19 -14z"/>
<path d="M1438 712 c-10 -2 -18 -8 -18 -13 0 -13 27 -11 35 2 9 13 4 16 -17
11z"/>
<path d="M1661 736 c-15 -18 -3 -46 19 -46 10 0 21 7 24 16 6 16 -9 44 -24 44
-4 0 -13 -6 -19 -14z"/>
<path d="M2114 735 c-8 -21 2 -45 20 -45 19 0 29 29 15 46 -15 18 -28 18 -35
-1z"/>
<path d="M2270 740 c-12 -8 -9 -10 13 -10 16 0 26 4 22 10 -8 12 -16 12 -35 0z"/>
<path d="M2695 740 c-3 -5 3 -10 15 -10 12 0 18 5 15 10 -3 6 -10 10 -15 10
-5 0 -12 -4 -15 -10z"/>
<path d="M3041 736 c-15 -18 -3 -46 19 -46 10 0 21 7 24 16 6 16 -9 44 -24 44
-4 0 -13 -6 -19 -14z"/>
<path d="M3195 740 c-3 -5 3 -10 15 -10 12 0 18 5 15 10 -3 6 -10 10 -15 10
-5 0 -12 -4 -15 -10z"/>
<path d="M3644 735 c-9 -21 3 -45 21 -45 21 0 30 27 15 45 -16 19 -29 19 -36
0z"/>
<path d="M3965 740 c-3 -5 3 -10 15 -10 12 0 18 5 15 10 -3 6 -10 10 -15 10
-5 0 -12 -4 -15 -10z"/>
<path d="M4201 736 c-15 -18 -3 -46 19 -46 10 0 21 7 24 16 6 16 -9 44 -24 44
-4 0 -13 -6 -19 -14z"/>
<path d="M4294 736 c-9 -24 4 -48 23 -44 12 2 18 12 18 28 0 29 -32 41 -41 16z"/>
<path d="M1694 435 c-9 -21 3 -45 21 -45 21 0 30 27 15 45 -16 19 -29 19 -36
0z"/>
<path d="M1834 435 c-9 -21 3 -45 21 -45 21 0 30 27 15 45 -16 19 -29 19 -36
0z"/>
<path d="M2614 436 c-9 -24 4 -48 23 -44 12 2 18 12 18 28 0 29 -32 41 -41 16z"/>
<path d="M3224 436 c-9 -24 4 -48 23 -44 12 2 18 12 18 28 0 29 -32 41 -41 16z"/>
<path d="M2510 400 c0 -5 6 -10 14 -10 8 0 18 5 21 10 3 6 -3 10 -14 10 -12 0
-21 -4 -21 -10z"/>
<path d="M2714 435 c-9 -21 3 -45 21 -45 21 0 30 27 15 45 -16 19 -29 19 -36
0z"/>
<path d="M2865 440 c-3 -5 3 -10 15 -10 12 0 18 5 15 10 -3 6 -10 10 -15 10
-5 0 -12 -4 -15 -10z"/>
<path d="M3015 440 c-3 -5 3 -10 15 -10 12 0 18 5 15 10 -3 6 -10 10 -15 10
-5 0 -12 -4 -15 -10z"/>
<path d="M3331 436 c-15 -18 -3 -46 19 -46 10 0 21 7 24 16 6 16 -9 44 -24 44
-4 0 -13 -6 -19 -14z"/>
<path d="M3464 436 c-9 -24 4 -48 23 -44 12 2 18 12 18 28 0 29 -32 41 -41 16z"/>
<path d="M3620 440 c-12 -8 -9 -10 13 -10 16 0 26 4 22 10 -8 12 -16 12 -35 0z"/>
<path d="M3895 400 c3 -5 12 -10 20 -10 8 0 17 5 20 10 4 6 -5 10 -20 10 -15
0 -24 -4 -20 -10z"/>
<path d="M3994 435 c-9 -21 3 -45 21 -45 21 0 30 27 15 45 -16 19 -29 19 -36
0z"/>
<path d="M4208 412 c-10 -2 -18 -8 -18 -13 0 -13 27 -11 35 2 9 13 4 16 -17
11z"/>
</g>
</svg>
